<svg xmlns="http://www.w3.org/2000/svg" viewBox="0 0 26 26"><path d="M13 0C5.832 0 0 5.832 0 13s5.832 13 13 13 13-5.832 13-13S20.168 0 13 0zm11 13c0 .032-.004.062-.005.094-2.975-.913-5.635-.978-7.966-.523a46.585 46.585 0 0 0-.823-1.958 20.63 20.63 0 0 0 6.432-4.401A10.934 10.934 0 0 1 24 13zm-3.734-8.237c-1.802 1.836-3.854 3.124-5.928 4.017-1.6-3.178-3.137-5.267-4.105-6.413C11.119 2.135 12.043 2 13 2c2.786 0 5.325 1.049 7.266 2.763zM8.22 3.108c.713.778 2.41 2.834 4.222 6.383-4.341 1.407-8.457 1.303-10.186 1.17.725-3.334 2.968-6.099 5.964-7.553zM2 13c0-.117.014-.23.018-.345.573.051 1.382.1 2.374.1 2.301 0 5.554-.277 8.934-1.421.251.556.5 1.142.747 1.757-4.777 1.617-7.907 5.29-9.278 7.209A10.944 10.944 0 0 1 2 13zm4.255 8.67c1.093-1.639 3.94-5.273 8.51-6.748a57.14 57.14 0 0 1 2.254 8.27l.218-.042a10.952 10.952 0 0 1-10.982-1.48zm12.613.618a59.518 59.518 0 0 0-2.14-7.831c2.066-.332 4.42-.2 7.06.674a11.015 11.015 0 0 1-4.92 7.157z"/></svg>