<svg width="50" height="50" viewBox="0 0 50 50" fill="none" xmlns="http://www.w3.org/2000/svg">
<g clip-path="url(#clip0_7_26)">
<path d="M25 0C11.2154 0 0 11.2154 0 25C0 38.7846 11.2154 50 25 50C38.7846 50 50 38.7846 50 25C50 11.2154 38.7846 0 25 0ZM46.1538 25C46.1538 25.0615 46.1462 25.1192 46.1442 25.1808C40.4231 23.425 35.3077 23.3 30.825 24.175C30.3261 22.908 29.7984 21.6526 29.2423 20.4096C33.8657 18.4 38.0636 15.5276 41.6115 11.9462C44.5533 15.6613 46.154 20.2612 46.1538 25V25ZM38.9731 9.15962C35.5077 12.6904 31.5615 15.1673 27.5731 16.8846C24.4962 10.7731 21.5404 6.75577 19.6788 4.55192C21.3827 4.10577 23.1596 3.84615 25 3.84615C30.3577 3.84615 35.2404 5.86346 38.9731 9.15962ZM15.8077 5.97692C17.1788 7.47308 20.4423 11.4269 23.9269 18.2519C15.5788 20.9577 7.66346 20.7577 4.33846 20.5019C5.73269 14.0904 10.0462 8.77308 15.8077 5.97692V5.97692ZM3.84615 25C3.84615 24.775 3.87308 24.5577 3.88077 24.3365C4.98269 24.4346 6.53846 24.5288 8.44615 24.5288C12.8712 24.5288 19.1269 23.9962 25.6269 21.7962C26.1096 22.8654 26.5885 23.9923 27.0635 25.175C17.8769 28.2846 11.8577 35.3481 9.22115 39.0385C5.76243 35.1802 3.84858 30.1816 3.84615 25V25ZM12.0288 41.6731C14.1308 38.5212 19.6058 31.5327 28.3942 28.6962C30.2353 33.8814 31.6842 39.1977 32.7288 44.6L33.1481 44.5192C29.6928 45.9657 25.9142 46.4646 22.2019 45.9643C18.4896 45.464 14.9779 43.9827 12.0288 41.6731V41.6731ZM36.2846 42.8615C35.2572 37.7539 33.8822 32.7223 32.1692 27.8019C36.1423 27.1635 40.6692 27.4173 45.7462 29.0981C45.1842 31.9137 44.0556 34.5857 42.4291 36.9517C40.8026 39.3177 38.7121 41.3284 36.2846 42.8615V42.8615Z" fill="#FFFAFA"/>
</g>
<defs>
<clipPath id="clip0_7_26">
<rect width="50" height="50" fill="white"/>
</clipPath>
</defs>
</svg>
