<svg width="50" height="50" viewBox="0 0 50 50" fill="none" xmlns="http://www.w3.org/2000/svg">
<g clip-path="url(#clip0_5_22)">
<path d="M40.5833 46.5812C40.5375 46.425 39.4521 42.7312 38.4687 40.2417C38.4115 40.0945 38.3214 39.9624 38.2053 39.8553C38.0892 39.7483 37.9502 39.6691 37.7989 39.6239C37.6476 39.5787 37.488 39.5686 37.3322 39.5944C37.1764 39.6203 37.0286 39.6813 36.9 39.7729C35.5292 40.7333 33.5187 40.9062 32.1146 40.1792C30.8667 39.5333 30.2083 38.2458 30.2083 36.4583V22.9167H37.5C37.7763 22.9167 38.0412 22.8069 38.2366 22.6116C38.4319 22.4162 38.5417 22.1513 38.5417 21.875V13.5417C38.5417 13.2654 38.4319 13.0004 38.2366 12.8051C38.0412 12.6097 37.7763 12.5 37.5 12.5H30.2083V1.04167C30.2083 0.765399 30.0986 0.500447 29.9032 0.305097C29.7079 0.109747 29.4429 0 29.1667 0L20.8333 0C20.5571 0 20.2921 0.109747 20.0968 0.305097C19.9014 0.500447 19.7917 0.765399 19.7917 1.04167C19.7917 8.79167 14.8417 14.5833 10.4167 14.5833C10.1404 14.5833 9.87545 14.6931 9.6801 14.8884C9.48475 15.0838 9.375 15.3487 9.375 15.625V21.875C9.375 22.1513 9.48475 22.4162 9.6801 22.6116C9.87545 22.8069 10.1404 22.9167 10.4167 22.9167H17.7083V38.5417C17.7083 45.8229 22.2646 50 30.2083 50C36.1458 50 39.9417 47.8708 40.1 47.7792C40.3036 47.663 40.4621 47.4816 40.5498 47.2642C40.6375 47.0468 40.6493 46.8062 40.5833 46.5812Z" fill="white"/>
</g>
<defs>
<clipPath id="clip0_5_22">
<rect width="50" height="50" fill="white"/>
</clipPath>
</defs>
</svg>
