<svg width="36" height="36" viewBox="0 0 36 36" fill="none" xmlns="http://www.w3.org/2000/svg">
<path d="M28.4556 2.94908H8.03891C6.87859 2.94908 5.76579 3.41514 4.94532 4.24473C4.12485 5.07432 3.66391 6.19948 3.66391 7.37269V22.1181C3.66391 23.2913 4.12485 24.4164 4.94532 25.246C5.76579 26.0756 6.87859 26.5417 8.03891 26.5417H11.8889L11.0431 28.0162C10.7871 28.4645 10.6523 28.9731 10.6523 29.4907C10.6523 30.0084 10.7871 30.517 11.0431 30.9653C11.3013 31.4175 11.6736 31.7923 12.122 32.0514C12.5704 32.3105 13.0787 32.4445 13.5952 32.4398H23.016C23.5275 32.4393 24.0298 32.3028 24.4726 32.044C24.9155 31.7852 25.2832 31.4132 25.5389 30.9653C25.7949 30.517 25.9297 30.0084 25.9297 29.4907C25.9297 28.9731 25.7949 28.4645 25.5389 28.0162L24.6785 26.5417H28.4556C29.6159 26.5417 30.7287 26.0756 31.5492 25.246C32.3696 24.4164 32.8306 23.2913 32.8306 22.1181V7.37269C32.8306 6.19948 32.3696 5.07432 31.5492 4.24473C30.7287 3.41514 29.6159 2.94908 28.4556 2.94908ZM13.5368 29.4907L15.3306 26.5417H21.1639L22.9139 29.4907H13.5368ZM29.9139 22.1181C29.9139 22.5091 29.7603 22.8842 29.4868 23.1607C29.2133 23.4372 28.8424 23.5926 28.4556 23.5926H8.03891C7.65214 23.5926 7.2812 23.4372 7.00771 23.1607C6.73422 22.8842 6.58058 22.5091 6.58058 22.1181V20.6435H29.9139V22.1181ZM29.9139 17.6945H6.58058V7.37269C6.58058 6.98162 6.73422 6.60657 7.00771 6.33004C7.2812 6.05351 7.65214 5.89816 8.03891 5.89816H28.4556C28.8424 5.89816 29.2133 6.05351 29.4868 6.33004C29.7603 6.60657 29.9139 6.98162 29.9139 7.37269V17.6945Z" fill="black"/>
</svg>
