<svg width="50" height="50" viewBox="0 0 50 50" fill="none" xmlns="http://www.w3.org/2000/svg">
<g clip-path="url(#clip0_1_2)">
<path d="M46.1538 0H3.84615C1.73077 0 0 1.73077 0 3.84615V46.1538C0 48.2692 1.73077 50 3.84615 50H26.5827V30.6462H20.5346V22.9846H26.5827V16.9365C26.5827 9.52692 32.6308 7.66154 34.2442 7.66154H42.3096V14.9192H36.6635C34.7808 14.9192 34.6481 16.9346 34.6481 16.9346V22.9827H41.9058L41.1 30.6442H34.6481V50H46.1538C48.2692 50 50 48.2692 50 46.1538V3.84615C50 1.73077 48.2692 0 46.1538 0Z" fill="white"/>
</g>
<defs>
<clipPath id="clip0_1_2">
<rect width="50" height="50" fill="white"/>
</clipPath>
</defs>
</svg>
