<svg width="50" height="50" viewBox="0 0 50 50" fill="none" xmlns="http://www.w3.org/2000/svg">
<g clip-path="url(#clip0_3_12)">
<path d="M25 31.25C28.4518 31.25 31.25 28.4518 31.25 25C31.25 21.5482 28.4518 18.75 25 18.75C21.5482 18.75 18.75 21.5482 18.75 25C18.75 28.4518 21.5482 31.25 25 31.25Z" fill="white"/>
<path d="M33.5938 5.46875H16.4062C13.5065 5.47203 10.7264 6.62543 8.6759 8.6759C6.62543 10.7264 5.47203 13.5065 5.46875 16.4062V33.5938C5.47203 36.4935 6.62543 39.2736 8.6759 41.3241C10.7264 43.3746 13.5065 44.528 16.4062 44.5312H33.5938C36.4935 44.528 39.2736 43.3746 41.3241 41.3241C43.3746 39.2736 44.528 36.4935 44.5312 33.5938V16.4062C44.528 13.5065 43.3746 10.7264 41.3241 8.6759C39.2736 6.62543 36.4935 5.47203 33.5938 5.46875V5.46875ZM25 34.375C23.1458 34.375 21.3332 33.8252 19.7915 32.795C18.2498 31.7649 17.0482 30.3007 16.3386 28.5877C15.6291 26.8746 15.4434 24.9896 15.8051 23.171C16.1669 21.3525 17.0598 19.682 18.3709 18.3709C19.682 17.0598 21.3525 16.1669 23.171 15.8051C24.9896 15.4434 26.8746 15.6291 28.5877 16.3386C30.3007 17.0482 31.7649 18.2498 32.795 19.7915C33.8252 21.3332 34.375 23.1458 34.375 25C34.3722 27.4855 33.3836 29.8685 31.626 31.626C29.8685 33.3836 27.4855 34.3722 25 34.375V34.375ZM35.1562 17.1875C34.6927 17.1875 34.2396 17.05 33.8541 16.7925C33.4687 16.535 33.1683 16.1689 32.9909 15.7407C32.8135 15.3124 32.7671 14.8411 32.8575 14.3865C32.948 13.9319 33.1712 13.5142 33.499 13.1865C33.8267 12.8587 34.2444 12.6355 34.699 12.545C35.1537 12.4546 35.6249 12.501 36.0532 12.6784C36.4814 12.8558 36.8475 13.1562 37.105 13.5416C37.3625 13.9271 37.5 14.3802 37.5 14.8438C37.5 15.4654 37.2531 16.0615 36.8135 16.501C36.374 16.9406 35.7779 17.1875 35.1562 17.1875Z" fill="white"/>
</g>
<defs>
<clipPath id="clip0_3_12">
<rect width="50" height="50" fill="white"/>
</clipPath>
</defs>
</svg>
