<svg width="50" height="50" viewBox="0 0 50 50" fill="none" xmlns="http://www.w3.org/2000/svg">
<g clip-path="url(#clip0_1_6)">
<path d="M46.1538 0H3.84615C1.73077 0 0 1.73077 0 3.84615V46.1538C0 48.2692 1.73077 50 3.84615 50H46.1538C48.2692 50 50 48.2692 50 46.1538V3.84615C50 1.73077 48.2692 0 46.1538 0ZM15.0308 42.3077H7.69231V18.7019H15.0308V42.3077ZM11.3038 15.8058C8.70961 15.8058 6.97692 13.9673 7.03077 11.6942C6.97692 9.31538 8.70962 7.52885 11.3577 7.52885C14.0096 7.52885 15.6865 9.31538 15.7404 11.6942C15.7423 13.9673 14.0115 15.8058 11.3038 15.8058ZM42.3077 42.3077H34.9712V29.2269C34.9712 26.1846 33.9077 24.1096 31.2519 24.1096C29.2269 24.1096 28.0192 25.5096 27.5365 26.8615C27.3442 27.2962 27.2481 28.0212 27.2481 28.6942V42.3077H19.9096V26.2346C19.9096 23.2885 19.8135 20.7788 19.7173 18.7038H26.0885L26.4269 21.9385H26.5731C27.5385 20.4404 29.9519 18.1731 33.8615 18.1731C38.6885 18.1731 42.3077 21.3577 42.3077 28.3096V42.3077Z" fill="white"/>
</g>
<defs>
<clipPath id="clip0_1_6">
<rect width="50" height="50" fill="white"/>
</clipPath>
</defs>
</svg>
