<svg width="50" height="50" viewBox="0 0 50 50" fill="none" xmlns="http://www.w3.org/2000/svg">
<path d="M45.8333 12.0833C44.2674 12.7627 42.6113 13.2118 40.9167 13.4167C42.7045 12.3486 44.0443 10.6683 44.6875 8.6875C43.0074 9.68763 41.1683 10.3923 39.25 10.7708C37.9678 9.38036 36.2604 8.45479 34.3954 8.13928C32.5305 7.82377 30.6136 8.13617 28.9454 9.02748C27.2772 9.91879 25.9519 11.3386 25.1776 13.0642C24.4032 14.7899 24.2235 16.7237 24.6667 18.5625C21.2696 18.3907 17.9468 17.5062 14.9139 15.9664C11.881 14.4266 9.20593 12.266 7.0625 9.625C6.3107 10.9379 5.91567 12.4246 5.91667 13.9375C5.914 15.3425 6.25879 16.7263 6.92032 17.9658C7.58186 19.2052 8.53962 20.2619 9.70833 21.0417C8.34995 21.0047 7.0206 20.6402 5.83333 19.9792V20.0833C5.84352 22.0519 6.53332 23.9564 7.78607 25.4749C9.03882 26.9934 10.7776 28.0326 12.7083 28.4167C11.9651 28.6429 11.1935 28.7621 10.4167 28.7708C9.87894 28.7646 9.34255 28.7158 8.8125 28.625C9.36231 30.3184 10.4263 31.7982 11.8564 32.8587C13.2865 33.9191 15.0116 34.5074 16.7917 34.5417C13.7858 36.9068 10.0748 38.1976 6.25 38.2083C5.55362 38.2106 4.85778 38.1689 4.16667 38.0833C8.07173 40.6047 12.6225 41.9432 17.2708 41.9375C20.4785 41.9708 23.6607 41.3646 26.6315 40.1543C29.6023 38.9441 32.3021 37.1539 34.5733 34.8885C36.8446 32.6231 38.6416 29.9279 39.8595 26.9602C41.0774 23.9925 41.6918 20.8119 41.6667 17.6042C41.6667 17.25 41.6667 16.875 41.6667 16.5C43.3015 15.2809 44.7114 13.7863 45.8333 12.0833V12.0833Z" fill="white"/>
</svg>
