<svg width="50" height="50" viewBox="0 0 50 50" fill="none" xmlns="http://www.w3.org/2000/svg">
<path d="M45.7677 13.6323C45.5824 12.9136 45.2289 12.2494 44.7363 11.6942C44.2437 11.1391 43.6262 10.7091 42.9347 10.4397C36.2414 7.86762 25.5819 7.88908 25 7.89213C24.4184 7.88746 13.7588 7.86752 7.06539 10.4397C6.37391 10.7091 5.7564 11.1391 5.26382 11.6942C4.77124 12.2492 4.41771 12.9135 4.23241 13.6321C3.72715 15.5717 3.125 19.1183 3.125 25C3.125 30.8816 3.72715 34.4282 4.23231 36.3677C4.41758 37.0864 4.7711 37.7506 5.26368 38.3058C5.75626 38.8609 6.37379 39.2909 7.0653 39.5603C13.4727 42.0226 23.5148 42.1083 24.8714 42.1083C24.9926 42.1083 25.0074 42.1083 25.1287 42.1083C26.4862 42.1082 36.5275 42.0224 42.9346 39.5603C43.6261 39.2909 44.2436 38.8609 44.7362 38.3058C45.2288 37.7508 45.5823 37.0865 45.7676 36.3679C46.2729 34.4283 46.875 30.8817 46.875 25C46.875 19.1184 46.2729 15.5718 45.7677 13.6323ZM31.6833 25.65L22.3083 31.9C22.1907 31.9785 22.054 32.0235 21.9127 32.0304C21.7715 32.0372 21.631 32.0056 21.5063 31.9389C21.3817 31.8721 21.2774 31.7728 21.2048 31.6515C21.1321 31.5302 21.0937 31.3914 21.0938 31.25V18.75C21.0937 18.6086 21.1321 18.4698 21.2048 18.3485C21.2774 18.2272 21.3817 18.1279 21.5063 18.0611C21.631 17.9944 21.7715 17.9628 21.9127 17.9696C22.054 17.9765 22.1907 18.0215 22.3083 18.1L31.6833 24.35C31.7904 24.4213 31.8781 24.518 31.9388 24.6314C31.9995 24.7448 32.0312 24.8714 32.0312 25C32.0312 25.1286 31.9995 25.2552 31.9388 25.3686C31.8781 25.482 31.7904 25.5787 31.6833 25.65Z" fill="white"/>
</svg>
